Coordinates
version=1
nRows=13
nColumns=40
inDegrees=yes

Units are S.I. units (second, meters, Newtons, ...)
Angles are in degrees.

endheader
time	pelvis_tilt	pelvis_list	pelvis_rotation	pelvis_tx	pelvis_ty	pelvis_tz	hip_flexion_r	hip_adduction_r	hip_rotation_r	knee_angle_r	knee_angle_r_beta	ankle_angle_r	subtalar_angle_r	mtp_angle_r	hip_flexion_l	hip_adduction_l	hip_rotation_l	knee_angle_l	knee_angle_l_beta	ankle_angle_l	subtalar_angle_l	mtp_angle_l	lumbar_extension	lumbar_bending	lumbar_rotation	arm_flex_r	arm_add_r	arm_rot_r	elbow_flex_r	pro_sup_r	wrist_flex_r	wrist_dev_r	arm_flex_l	arm_add_l	arm_rot_l	elbow_flex_l	pro_sup_l	wrist_flex_l	wrist_dev_l
      9.26750000	     -3.26024748	     -7.02354783	      4.97197485	      0.95889533	      0.93076274	      0.50192032	      7.99921394	      6.01824781	    -18.63279871	     11.52527285	     11.52527285	     10.13241725	      6.26271046	     -5.70009176	     37.74219987	    -12.88624981	      3.22017871	     55.19992973	     55.19992973	      8.44737915	    -17.49971057	     10.16985753	    -13.20218890	      6.77393194	      5.00733649	     18.67392098	    -16.05487263	      1.73265127	     52.46937749	     45.28986758	      0.00000000	      0.00000000	     -4.91771266	     -8.42562550	     -2.08032906	     52.99511794	     47.07459254	      0.00000000	      0.00000000
      9.27900000	     -3.21749923	     -7.13734810	      5.13513764	      0.95837775	      0.93095468	      0.50203417	      6.95733317	      6.31864933	    -19.05439204	     10.59507838	     10.59507838	     10.11148839	      7.20717460	     -5.90821121	     38.09574735	    -12.67048630	      3.23558126	     51.82134865	     51.82134865	      8.36455981	    -17.20353558	     10.41730221	    -13.14744862	      7.02549653	      5.41570118	     19.96276726	    -16.74329963	      2.91380679	     56.40412726	     45.11899478	      0.00000000	      0.00000000	     -3.94037704	     -7.76991705	     -2.08545877	     45.51455128	     46.97710588	      0.00000000	      0.00000000
      9.29050000	     -3.27021334	     -7.21172754	      5.18186850	      0.95788205	      0.93075550	      0.50219297	      6.13491868	      6.57029191	    -19.09514891	      9.90053608	      9.90053608	     10.27276594	      7.65019995	     -5.89319553	     38.39384075	    -12.43664345	      3.23879463	     48.31424750	     48.31424750	      8.32201311	    -16.64170204	     10.64748975	    -13.08812294	      7.11620956	      5.20969805	     22.15847429	    -16.48312286	      2.87957803	     58.92365877	     45.04974924	      0.00000000	      0.00000000	     -5.13718827	     -7.69482311	     -1.86059362	     43.10241088	     46.90734468	      0.00000000	      0.00000000
      9.30200000	     -3.28318926	     -7.30368349	      5.17823977	      0.95751898	      0.93050995	      0.50230207	      5.27317526	      6.82881728	    -19.18773174	      9.24238497	      9.24238497	     10.44959326	      8.20208069	     -5.89174320	     38.47571763	    -12.25981235	      3.23856198	     44.65030542	     44.65030542	      8.23907573	    -15.77759344	     10.80679544	    -13.07268808	      7.23301510	      5.02412098	     24.33065102	    -16.24249631	      3.05861673	     61.57801549	     44.96816148	      0.00000000	      0.00000000	     -6.17500555	     -7.58466085	     -1.60359628	     40.39263621	     46.83382558	      0.00000000	      0.00000000
      9.31350000	     -3.32536552	     -7.32199309	      5.08853586	      0.95730834	      0.93009886	      0.50237598	      4.51379313	      6.97252657	    -19.13793713	      8.76391241	      8.76391241	     10.72464697	      8.66583939	     -5.92750062	     38.40311286	    -12.08410831	      3.11225921	     40.92195810	     40.92195810	      8.21674014	    -14.57402313	     11.06703430	    -13.00273991	      7.26114890	      5.09587049	     26.41522198	    -15.99926613	      3.20748886	     63.84779493	     44.89928717	      0.00000000	      0.00000000	     -7.29935333	     -7.54596120	     -1.39137231	     38.31594704	     46.77366226	      0.00000000	      0.00000000
      9.32500000	     -3.32803779	     -7.47947801	      4.98803260	      0.95731404	      0.92950263	      0.50243615	      3.67554349	      7.27133347	    -19.18998649	      8.22478368	      8.22478368	     10.97617969	      9.30335230	     -5.91453481	     38.23651066	    -12.05526379	      3.12413181	     37.29459113	     37.29459113	      8.26183778	    -13.15094471	     11.24690542	    -12.91743653	      7.40292829	      5.02961624	     28.52874279	    -15.71707265	      3.56230822	     66.67676109	     44.80650841	      0.00000000	      0.00000000	     -8.30867173	     -7.41759342	     -1.07496873	     35.82852632	     46.69928177	      0.00000000	      0.00000000
      9.33650000	     -3.38128940	     -7.69910664	      4.80145910	      0.95743262	      0.92872635	      0.50240844	      2.95396769	      7.58120350	    -19.31080658	      7.84271076	      7.84271076	     11.38339111	     10.19298185	     -5.64325253	     38.04769179	    -12.14972844	      3.06666519	     33.81755822	     33.81755822	      8.10300883	    -11.63498782	     11.20030681	    -12.80282983	      7.66881774	      5.98650131	     29.66328734	    -16.79351979	      4.43004931	     71.11424316	     44.66670768	      0.00000000	      0.00000000	     -8.05513340	     -7.13796794	     -0.31514632	     31.47623409	     46.54995238	      0.00000000	      0.00000000
      9.34800000	     -3.39151644	     -7.82605330	      4.58491047	      0.95776336	      0.92790064	      0.50234641	      2.21988257	      7.79671008	    -19.12518995	      7.55764294	      7.55764294	     11.74087045	     10.54139381	     -5.65339556	     37.70730319	    -12.19794615	      2.87880261	     30.58269124	     30.58269124	      8.16654618	    -10.13580136	     11.74543268	    -12.69211047	      7.76913340	      5.90114657	     31.88612379	    -16.08726568	      4.30604217	     73.25719226	     44.61832944	      0.00000000	      0.00000000	     -9.48197443	     -7.13240955	     -0.04614078	     30.33309424	     46.47710911	      0.00000000	      0.00000000
      9.35950000	     -3.39834620	     -7.95257399	      4.32806606	      0.95829722	      0.92698132	      0.50216321	      1.47435056	      7.98992763	    -18.92507605	      7.29887767	      7.29887767	     12.14014707	     10.95022025	     -5.65138421	     37.32245672	    -12.29368737	      2.52475993	     27.70103564	     27.70103564	      8.21383087	     -8.71726161	     12.36411426	    -12.54721088	      7.89296465	      5.89319838	     34.00185493	    -15.49419623	      4.41286080	     75.44839075	     44.55920364	      0.00000000	      0.00000000	    -10.83080653	     -7.11857342	      0.26119959	     29.22856518	     46.40088942	      0.00000000	      0.00000000
      9.37100000	     -3.40172425	     -8.11912522	      4.05389663	      0.95901874	      0.92592634	      0.50189730	      0.72138788	      8.20611815	    -18.72081016	      7.06521131	      7.06521131	     12.58371930	     11.41051910	     -5.56164316	     36.98920587	    -12.45270602	      2.09778705	     25.36742323	     25.36742323	      8.31736216	     -7.45062246	     13.03281856	    -12.40297712	      8.05887158	      5.86728160	     36.03426073	    -14.94493875	      4.74367286	     77.93885649	     44.48563691	      0.00000000	      0.00000000	    -12.13138493	     -7.05424135	      0.72046876	     28.10655457	     46.29905825	      0.00000000	      0.00000000
      9.38250000	     -3.43237229	     -8.29120450	      3.73050764	      0.95990087	      0.92481785	      0.50150103	      0.04384438	      8.38733987	    -18.47546177	      6.97350385	      6.97350385	     13.29230981	     11.87940888	     -4.85394402	     36.70903192	    -12.65701075	      1.43346480	     23.60125063	     23.60125063	      8.62367789	     -6.35541271	     14.20254915	    -12.23684845	      8.22768779	      6.34103534	     37.52648105	    -15.30265564	      5.53000354	     81.39253664	     44.40686614	      0.00000000	      0.00000000	    -13.10736361	     -7.18258431	      2.48666788	     26.95529543	     45.96043495	      0.00000000	      0.00000000
      9.39400000	     -3.46156226	     -8.33508645	      3.40838970	      0.96093703	      0.92368554	      0.50094426	     -0.60032323	      8.40789923	    -18.13286256	      6.96325957	      6.96325957	     13.76770817	     12.02265939	     -4.88466127	     36.32901742	    -12.69645358	      0.76377784	     22.19065607	     22.19065607	      8.52119512	     -5.86352395	     14.56851706	    -12.00355126	      8.23409470	      6.25571782	     39.48620284	    -14.41109151	      5.49027030	     83.13542791	     44.36978192	      0.00000000	      0.00000000	    -14.50804749	     -7.19385835	      2.87056421	     26.36929460	     45.86705466	      0.00000000	      0.00000000
      9.40550000	     -3.65471781	     -8.48095267	      2.99944508	      0.96211933	      0.92215537	      0.50036072	     -1.06550094	      8.50266354	    -17.72849348	      6.97380431	      6.97380431	     14.21580154	     12.23177735	     -4.99207492	     36.28640829	    -12.83626002	      0.21592709	     21.54580114	     21.54580114	      8.40074710	     -5.85556438	     14.75003079	    -11.44877036	      8.31790255	      6.71729550	     41.19384691	    -14.23997790	      5.33787644	     84.08781853	     44.35317390	      0.00000000	      0.00000000	    -15.75067624	     -7.25817608	      2.95501262	     25.92045666	     45.82970049	      0.00000000	      0.00000000
